<svg width="198" height="41" xmlns="http://www.w3.org/2000/svg">

 <g>
  <title>background</title>
  <rect fill="none" id="canvas_background" height="43" width="200" y="-1" x="-1"/>
 </g>
 <g>
  <title>Layer 1</title>
  <rect stroke="#C7CACD" rx="6" id="svg_25" height="40" width="197" y="0.5" x="0.5" fill-opacity="null" stroke-opacity="null" fill="white"/>
  <g id="svg_24">
   <path id="svg_10" fill="black" d="m45.64394,-20.09568l0,-8.576l-1.52,0l0,8.352c0,0.6293 -0.1333,1.1307 -0.4,1.504c-0.256,0.3733 -0.7307,0.56 -1.424,0.56c-0.3733,0 -0.6827,-0.0533 -0.928,-0.16c-0.2347,-0.1173 -0.4213,-0.2773 -0.56,-0.48c-0.128,-0.2027 -0.2187,-0.4427 -0.272,-0.72c-0.0533,-0.2773 -0.08,-0.5813 -0.08,-0.912l0,-0.48l-1.52,0l0,0.704c0,1.088 0.288,1.9147 0.864,2.48c0.576,0.5547 1.3973,0.832 2.464,0.832c0.64,0 1.1733,-0.0853 1.6,-0.256c0.4373,-0.1813 0.784,-0.416 1.04,-0.704c0.2667,-0.2987 0.4533,-0.6347 0.56,-1.008c0.1173,-0.3733 0.176,-0.752 0.176,-1.136z"/>
   <path id="svg_11" fill="black" d="m48.42084,-21.37568c0,-0.5013 0.064,-0.944 0.192,-1.328c0.1386,-0.3947 0.3253,-0.7253 0.56,-0.992c0.2346,-0.2667 0.5066,-0.4693 0.816,-0.608c0.32,-0.1387 0.656,-0.208 1.008,-0.208c0.352,0 0.6826,0.0693 0.992,0.208c0.32,0.1387 0.5973,0.3413 0.832,0.608c0.2346,0.2667 0.416,0.5973 0.544,0.992c0.1386,0.384 0.208,0.8267 0.208,1.328c0,0.5013 -0.0694,0.9493 -0.208,1.344c-0.128,0.384 -0.3094,0.7093 -0.544,0.976c-0.2347,0.256 -0.512,0.4533 -0.832,0.592c-0.3094,0.1387 -0.64,0.208 -0.992,0.208c-0.352,0 -0.688,-0.0693 -1.008,-0.208c-0.3094,-0.1387 -0.5814,-0.336 -0.816,-0.592c-0.2347,-0.2667 -0.4214,-0.592 -0.56,-0.976c-0.128,-0.3947 -0.192,-0.8427 -0.192,-1.344zm-1.44,0c0,0.608 0.0853,1.1733 0.256,1.696c0.1706,0.5227 0.4266,0.9813 0.768,1.376c0.3413,0.384 0.7626,0.688 1.264,0.912c0.5013,0.2133 1.0773,0.32 1.728,0.32c0.6613,0 1.2373,-0.1067 1.728,-0.32c0.5013,-0.224 0.9226,-0.528 1.264,-0.912c0.3413,-0.3947 0.5973,-0.8533 0.768,-1.376c0.1706,-0.5227 0.256,-1.088 0.256,-1.696c0,-0.608 -0.0854,-1.1733 -0.256,-1.696c-0.1707,-0.5333 -0.4267,-0.992 -0.768,-1.376c-0.3414,-0.3947 -0.7627,-0.704 -1.264,-0.928c-0.4907,-0.224 -1.0667,-0.336 -1.728,-0.336c-0.6507,0 -1.2267,0.112 -1.728,0.336c-0.5014,0.224 -0.9227,0.5333 -1.264,0.928c-0.3414,0.384 -0.5974,0.8427 -0.768,1.376c-0.1707,0.5227 -0.256,1.088 -0.256,1.696z"/>
   <path id="svg_12" fill="black" d="m57.57634,-27.00768l0,-1.664l-1.36,0l0,1.664l1.36,0zm-1.36,1.488l0,8.272l1.36,0l0,-8.272l-1.36,0z"/>
   <path id="svg_13" fill="black" d="m59.20314,-25.51968l0,8.272l1.36,0l0,-4.672c0,-0.3733 0.048,-0.7147 0.144,-1.024c0.1067,-0.32 0.2614,-0.5973 0.464,-0.832c0.2027,-0.2347 0.4534,-0.416 0.752,-0.544c0.3094,-0.128 0.672,-0.192 1.088,-0.192c0.5227,0 0.9334,0.1493 1.232,0.448c0.2987,0.2987 0.448,0.704 0.448,1.216l0,5.6l1.36,0l0,-5.44c0,-0.448 -0.048,-0.8533 -0.144,-1.216c-0.0853,-0.3733 -0.24,-0.6933 -0.464,-0.96c-0.224,-0.2667 -0.5173,-0.4747 -0.88,-0.624c-0.3626,-0.1493 -0.816,-0.224 -1.36,-0.224c-1.2266,0 -2.1226,0.5013 -2.688,1.504l-0.032,0l0,-1.312l-1.28,0z"/>
   <path id="svg_14" fill="black" d="m78.43494,-17.24768l0,-8.272l-1.36,0l0,4.672c0,0.3733 -0.0533,0.72 -0.16,1.04c-0.096,0.3093 -0.2453,0.5813 -0.448,0.816c-0.2027,0.2347 -0.4587,0.416 -0.768,0.544c-0.2987,0.128 -0.656,0.192 -1.072,0.192c-0.5227,0 -0.9333,-0.1493 -1.232,-0.448c-0.2987,-0.2987 -0.448,-0.704 -0.448,-1.216l0,-5.6l-1.36,0l0,5.44c0,0.448 0.0427,0.8587 0.128,1.232c0.096,0.3627 0.256,0.6773 0.48,0.944c0.224,0.2667 0.5173,0.4747 0.88,0.624c0.3627,0.1387 0.816,0.208 1.36,0.208c0.608,0 1.136,-0.1173 1.584,-0.352c0.448,-0.2453 0.816,-0.624 1.104,-1.136l0.032,0l0,1.312l1.28,0z"/>
   <path id="svg_15" fill="black" d="m80.82954,-19.85568l-1.36,0c0.0213,0.512 0.128,0.9493 0.32,1.312c0.192,0.352 0.448,0.64 0.768,0.864c0.32,0.2133 0.688,0.368 1.104,0.464c0.416,0.096 0.8533,0.144 1.312,0.144c0.416,0 0.832,-0.0427 1.248,-0.128c0.4267,-0.0747 0.8053,-0.2133 1.136,-0.416c0.3413,-0.2027 0.6133,-0.4693 0.816,-0.8c0.2133,-0.3307 0.32,-0.7467 0.32,-1.248c0,-0.3947 -0.08,-0.7253 -0.24,-0.992c-0.1493,-0.2667 -0.352,-0.4853 -0.608,-0.656c-0.2453,-0.1813 -0.5333,-0.3253 -0.864,-0.432c-0.32,-0.1067 -0.6507,-0.1973 -0.992,-0.272c-0.32,-0.0747 -0.64,-0.144 -0.96,-0.208c-0.32,-0.0747 -0.608,-0.16 -0.864,-0.256c-0.256,-0.1067 -0.4693,-0.2347 -0.64,-0.384c-0.16,-0.16 -0.24,-0.3573 -0.24,-0.592c0,-0.2133 0.0533,-0.384 0.16,-0.512c0.1067,-0.1387 0.2453,-0.2453 0.416,-0.32c0.1707,-0.0853 0.3573,-0.144 0.56,-0.176c0.2133,-0.032 0.4213,-0.048 0.624,-0.048c0.224,0 0.4427,0.0267 0.656,0.08c0.224,0.0427 0.4267,0.1173 0.608,0.224c0.1813,0.1067 0.3307,0.2507 0.448,0.432c0.1173,0.1707 0.1867,0.3893 0.208,0.656l1.36,0c-0.032,-0.5013 -0.1387,-0.9173 -0.32,-1.248c-0.1813,-0.3413 -0.4267,-0.608 -0.736,-0.8c-0.2987,-0.2027 -0.6453,-0.3413 -1.04,-0.416c-0.3947,-0.0853 -0.8267,-0.128 -1.296,-0.128c-0.3627,0 -0.7307,0.048 -1.104,0.144c-0.3627,0.0853 -0.6933,0.224 -0.992,0.416c-0.288,0.1813 -0.528,0.4213 -0.72,0.72c-0.1813,0.2987 -0.272,0.656 -0.272,1.072c0,0.5333 0.1333,0.9493 0.4,1.248c0.2667,0.2987 0.5973,0.5333 0.992,0.704c0.4053,0.16 0.8427,0.288 1.312,0.384c0.4693,0.0853 0.9013,0.1867 1.296,0.304c0.4053,0.1067 0.7413,0.2507 1.008,0.432c0.2667,0.1813 0.4,0.448 0.4,0.8c0,0.256 -0.064,0.4693 -0.192,0.64c-0.128,0.16 -0.2933,0.2827 -0.496,0.368c-0.192,0.0853 -0.4053,0.144 -0.64,0.176c-0.2347,0.032 -0.4587,0.048 -0.672,0.048c-0.2773,0 -0.5493,-0.0267 -0.816,-0.08c-0.256,-0.0533 -0.4907,-0.1387 -0.704,-0.256c-0.2027,-0.128 -0.368,-0.2933 -0.496,-0.496c-0.128,-0.2133 -0.1973,-0.4693 -0.208,-0.768z"/>
   <path id="svg_16" fill="black" d="m92.48264,-21.37568c0,-0.5013 0.064,-0.944 0.192,-1.328c0.1387,-0.3947 0.3254,-0.7253 0.56,-0.992c0.2347,-0.2667 0.5067,-0.4693 0.816,-0.608c0.32,-0.1387 0.656,-0.208 1.008,-0.208c0.352,0 0.6827,0.0693 0.992,0.208c0.32,0.1387 0.5974,0.3413 0.832,0.608c0.2347,0.2667 0.416,0.5973 0.544,0.992c0.1387,0.384 0.208,0.8267 0.208,1.328c0,0.5013 -0.0693,0.9493 -0.208,1.344c-0.128,0.384 -0.3093,0.7093 -0.544,0.976c-0.2346,0.256 -0.512,0.4533 -0.832,0.592c-0.3093,0.1387 -0.64,0.208 -0.992,0.208c-0.352,0 -0.688,-0.0693 -1.008,-0.208c-0.3093,-0.1387 -0.5813,-0.336 -0.816,-0.592c-0.2346,-0.2667 -0.4213,-0.592 -0.56,-0.976c-0.128,-0.3947 -0.192,-0.8427 -0.192,-1.344zm-1.44,0c0,0.608 0.0854,1.1733 0.256,1.696c0.1707,0.5227 0.4267,0.9813 0.768,1.376c0.3414,0.384 0.7627,0.688 1.264,0.912c0.5014,0.2133 1.0774,0.32 1.728,0.32c0.6614,0 1.2374,-0.1067 1.728,-0.32c0.5014,-0.224 0.9227,-0.528 1.264,-0.912c0.3414,-0.3947 0.5973,-0.8533 0.7683,-1.376c0.17,-0.5227 0.256,-1.088 0.256,-1.696c0,-0.608 -0.086,-1.1733 -0.256,-1.696c-0.171,-0.5333 -0.4269,-0.992 -0.7683,-1.376c-0.3413,-0.3947 -0.7626,-0.704 -1.264,-0.928c-0.4906,-0.224 -1.0666,-0.336 -1.728,-0.336c-0.6506,0 -1.2266,0.112 -1.728,0.336c-0.5013,0.224 -0.9226,0.5333 -1.264,0.928c-0.3413,0.384 -0.5973,0.8427 -0.768,1.376c-0.1706,0.5227 -0.256,1.088 -0.256,1.696z"/>
   <path id="svg_17" fill="black" d="m100.19794,-25.51968l0,8.272l1.36,0l0,-4.672c0,-0.3733 0.048,-0.7147 0.144,-1.024c0.107,-0.32 0.262,-0.5973 0.464,-0.832c0.203,-0.2347 0.454,-0.416 0.752,-0.544c0.31,-0.128 0.672,-0.192 1.088,-0.192c0.523,0 0.934,0.1493 1.232,0.448c0.299,0.2987 0.448,0.704 0.448,1.216l0,5.6l1.36,0l0,-5.44c0,-0.448 -0.048,-0.8533 -0.144,-1.216c-0.085,-0.3733 -0.24,-0.6933 -0.464,-0.96c-0.224,-0.2667 -0.517,-0.4747 -0.88,-0.624c-0.362,-0.1493 -0.816,-0.224 -1.36,-0.224c-1.226,0 -2.122,0.5013 -2.688,1.504l-0.032,0l0,-1.312l-1.28,0z"/>
   <path id="svg_18" fill="black" d="m119.18794,-25.04768c-0.1,-0.6 -0.6,-1.6 -2.1,-1.6c-1.1,0 -1.8,0.7 -1.8,1.4c0,0.6 0.4,1.1 1.2,1.3l1.6,0.3c2.1,0.4 3.2,1.7 3.2,3.3c0,1.7 -1.5,3.5 -4.1,3.5c-3,0 -4.3,-1.9 -4.5,-3.6l2,-0.5c0.1,1.1 0.9,2.1 2.5,2.1c1.2,0 1.8,-0.6 1.8,-1.4c0,-0.7 -0.5,-1.2 -1.4,-1.3l-1.6,-0.3c-1.8,-0.4 -3,-1.5 -3,-3.2c0,-2 1.8,-3.6 4,-3.6c2.8,0 3.8,1.7 4.1,2.9l-1.9,0.7z"/>
   <path id="svg_19" fill="black" d="m122.58794,-17.04768l0,-11.6l2.1,0l0,11.6l-2.1,0z"/>
   <path id="svg_20" fill="black" d="m128.28794,-21.54768l1.9,-0.3c0.4,-0.1 0.6,-0.3 0.6,-0.6c0,-0.6 -0.4,-1 -1.3,-1c-0.9,0 -1.4,0.6 -1.5,1.3l-1.9,-0.4c0.1,-1.2 1.3,-2.6 3.4,-2.6c2.5,0 3.4,1.4 3.4,3l0,3.9c0,0.4 0,1 0.1,1.2l-2,0c0,-0.2 -0.1,-0.6 -0.1,-0.9c-0.4,0.6 -1.2,1.2 -2.3,1.2c-1.7,0 -2.7,-1.1 -2.7,-2.4c0,-1.5 1.1,-2.2 2.4,-2.4zm2.5,1.3l0,-0.4l-1.8,0.3c-0.5,0.1 -1,0.4 -1,1c0,0.5 0.3,0.9 1,0.9c1,0 1.8,-0.4 1.8,-1.8z"/>
   <path id="svg_21" fill="black" d="m136.08794,-20.70378c0,1.4 0.9,2.2 2,2.2c1.1,0 1.6,-0.7 1.8,-1.3l1.9,0.6c-0.4,1.3 -1.6,2.7 -3.7,2.7c-2.3,0 -4.1,-1.8 -4.1,-4.2c0,-2.4 1.8,-4.2 4.1,-4.2c2.1,0 3.4,1.3 3.7,2.7l-1.9,0.6c-0.2,-0.7 -0.7,-1.3 -1.7,-1.3c-1.2,0 -2.1,0.7 -2.1,2.2z"/>
   <path id="svg_22" fill="black" d="m147.28794,-21.40378l3.2,4.6l-2.6,0l-2.1,-3l-0.9,0.9l0,2.1l-2.1,0l0,-11.6l2.1,0l0,6.6l2.7,-2.9l2.8,0l-3.1,3.3z"/>
  </g>
  <g id="svg_51">
   <path id="svg_30" fill="#E6E6E6" d="m30.28388,9.77172l-17.26268,0c-0.53775,0 -0.97358,0.43644 -0.97358,0.97419l0,3.23903l19.21037,0l0,-3.23903c0.00004,-0.53779 -0.4364,-0.97419 -0.9741,-0.97419zm-13.29376,1.94899c-0.25739,0 -0.46628,-0.20888 -0.46628,-0.46628s0.20888,-0.46628 0.46628,-0.46628c0.25739,0 0.46628,0.20888 0.46628,0.46628s-0.20892,0.46628 -0.46628,0.46628zm9.44728,0c-0.25739,0 -0.46628,-0.20888 -0.46628,-0.46628s0.20888,-0.46628 0.46628,-0.46628s0.46628,0.20888 0.46628,0.46628s-0.20892,0.46628 -0.46628,0.46628z"/>
   <path id="svg_31" fill="#3A5BBC" d="m32.70035,14.21124l-1.47341,7.68353l0.60178,7.99004c0.04415,0.58626 -0.41967,1.08674 -1.00839,1.08674l-18.33558,0c-0.58812,0 -1.05254,-0.50048 -1.00839,-1.08674l0.60243,-7.99004l-1.47341,-7.68353c-0.13862,-0.72242 0.4153,-1.39325 1.15138,-1.39325l19.79166,0c0.73669,0 1.29056,0.67083 1.15194,1.39325z"/>
   <path id="svg_32" fill="#518EF8" d="m30.82033,30.9715l-18.33558,0c-0.58812,0 -1.05254,-0.50048 -1.00839,-1.08674l0.60243,-7.99004l10.56882,0l8.57937,0l0.60178,7.99004c0.04415,0.58626 -0.41967,1.08674 -1.00843,1.08674z"/>
   <g transform="matrix(0.043237772088421174,0,0,0.043237772088421174,0,0) " id="svg_33">
    <path id="svg_34" fill="#FFFFFF" d="m492.15732,460.00955c0,-34.687 -29.026,-62.906 -64.703,-62.906s-64.703,28.219 -64.703,62.906l21.568,0c0,-22.794 19.351,-41.338 43.136,-41.338s43.136,18.544 43.136,41.338s-19.351,41.338 -43.136,41.338l-20.13,0l0,21.568l20.13,0c23.785,0 43.136,18.544 43.136,41.338c0,22.794 -19.351,41.338 -43.136,41.338s-43.136,-18.544 -43.136,-41.338l-21.568,0c0,34.687 29.026,62.906 64.703,62.906s64.703,-28.219 64.703,-62.906c0,-21.663 -11.322,-40.802 -28.513,-52.122c17.192,-11.319 28.513,-30.459 28.513,-52.122z"/>
    <polygon id="svg_35" fill="#FFFFFF" points="534.0753784179688,433.85756969451904 545.1393432617188,452.3715467453003 587.7753295898438,426.89455699920654 587.7753295898438,616.3755750656128 609.3423461914062,616.3755750656128 609.3423461914062,388.8815565109253 "/>
   </g>
   <g transform="matrix(0.043237772088421174,0,0,0.043237772088421174,0,0) " id="svg_36"/>
   <g transform="matrix(0.043237772088421174,0,0,0.043237772088421174,0,0) " id="svg_37"/>
   <g transform="matrix(0.043237772088421174,0,0,0.043237772088421174,0,0) " id="svg_38"/>
   <g transform="matrix(0.043237772088421174,0,0,0.043237772088421174,0,0) " id="svg_39"/>
   <g transform="matrix(0.043237772088421174,0,0,0.043237772088421174,0,0) " id="svg_40"/>
   <g transform="matrix(0.043237772088421174,0,0,0.043237772088421174,0,0) " id="svg_41"/>
   <g transform="matrix(0.043237772088421174,0,0,0.043237772088421174,0,0) " id="svg_42"/>
   <g transform="matrix(0.043237772088421174,0,0,0.043237772088421174,0,0) " id="svg_43"/>
   <g transform="matrix(0.043237772088421174,0,0,0.043237772088421174,0,0) " id="svg_44"/>
   <g transform="matrix(0.043237772088421174,0,0,0.043237772088421174,0,0) " id="svg_45"/>
   <g transform="matrix(0.043237772088421174,0,0,0.043237772088421174,0,0) " id="svg_46"/>
   <g transform="matrix(0.043237772088421174,0,0,0.043237772088421174,0,0) " id="svg_47"/>
   <g transform="matrix(0.043237772088421174,0,0,0.043237772088421174,0,0) " id="svg_48"/>
   <g transform="matrix(0.043237772088421174,0,0,0.043237772088421174,0,0) " id="svg_49"/>
   <g transform="matrix(0.043237772088421174,0,0,0.043237772088421174,0,0) " id="svg_50"/>
  </g>
  <text transform="matrix(1,0,0,1,0,0) " style="cursor: move;" font-weight="normal" xml:space="preserve" text-anchor="start" font-family="Helvetica, Arial, sans-serif" font-size="15" id="svg_52" y="25.82733" x="39.43204" fill-opacity="null" stroke-opacity="null" stroke-width="0" stroke="#C7CACD" fill="#000000">Schedule a set up</text>
  <text font-weight="bold" xml:space="preserve" text-anchor="start" font-family="Helvetica, Arial, sans-serif" font-size="15" id="svg_53" y="25.82758" x="162.90791" fill-opacity="null" stroke-opacity="null" stroke-width="0" stroke="#C7CACD" fill="#000000">call</text>
 </g>
</svg>
