<?xml version="1.0" encoding="UTF-8"?>
<svg id="outline_raw"
    xmlns="http://www.w3.org/2000/svg" viewBox="0 0 64 64">
    <g fill="white" id="u0hvwi.tif">
        <g>
            <path d="M53.66,2c.43,.06,.86,.1,1.28,.18,3.53,.65,6.31,3.71,6.8,7.51,.07,.53,.11,1.07,.11,1.61,0,9.4,0,18.79,0,28.19,0,2.42-.68,4.61-2.3,6.45-.98,1.12-2.16,2-3.64,2.34-.93,.22-1.89,.44-2.83,.44-8.11,.03-16.22,.05-24.33-.01-1.28-.01-2.07,.67-2.96,1.3-.13,.09-.22,.24-.35,.33-1.16,.86-2.33,1.7-3.49,2.56-1.45,1.08-2.9,2.17-4.34,3.26-1.36,1.03-2.73,2.06-4.08,3.09-1.04,.8-2.07,1.61-3.25,2.53,0-.39,0-.62,0-.86,0-3.84,0-7.67,.01-11.51,0-.52-.13-.67-.67-.75-2.43-.33-4.39-1.47-5.83-3.52-1.27-1.81-1.69-3.82-1.69-5.98,.02-9.25,.02-18.5,0-27.75,0-2,.4-3.88,1.49-5.55,.75-1.16,1.76-2.09,3-2.81,1.19-.69,2.46-.89,3.76-1.06,14.44,0,28.88,0,43.32,0ZM13.78,54.5c.76-.6,1.38-1.1,2.01-1.58,1.36-1.04,2.72-2.07,4.08-3.09,1.87-1.39,3.74-2.77,5.62-4.16,.12-.09,.27-.15,.35-.26,.33-.5,.8-.56,1.35-.56,8.61,0,17.22,0,25.83,0,.39,0,.79,0,1.18-.04,1.68-.2,2.81-1.16,3.57-2.63,.5-.97,.59-2.01,.59-3.08,0-9.04,0-18.09,0-27.13,0-.52-.02-1.04-.07-1.55-.24-2.62-2.24-4.57-4.87-4.58-14.29-.03-28.59-.01-42.88-.01-1.16,0-2.2,.41-3.07,1.12-1.33,1.09-1.86,2.57-1.86,4.28,0,9.44,0,18.88,0,28.32,0,.37,.01,.75,.08,1.12,.31,1.65,1.1,3.01,2.65,3.73,.71,.32,1.55,.4,2.35,.46,1,.07,2.02,.02,3.1,.02v9.64Z"/>
            <path d="M18.09,19.26v-3.65h27.7v3.65H18.09Z"/>
            <path d="M18.1,27.35v-3.66h27.7v3.66H18.1Z"/>
            <path d="M18.11,35.45v-3.66h27.69v3.66H18.11Z"/>
        </g>
    </g>
</svg>
