<?xml version="1.0" encoding="UTF-8"?><svg id="Layer_2" xmlns="http://www.w3.org/2000/svg" xmlns:xlink="http://www.w3.org/1999/xlink" viewBox="0 0 201.77 274.28"><defs><style>.cls-1{fill:url(#linear-gradient);}.cls-2{fill:#fff;}</style><linearGradient id="linear-gradient" x1="100.88" y1="313.48" x2="100.88" y2="-.69" gradientUnits="userSpaceOnUse"><stop offset="0" stop-color="#ffed00"/><stop offset="1" stop-color="#eb5a27"/></linearGradient></defs><g id="Layer_1-2"><g><path class="cls-1" d="m18.13,115.79h0s0,0,0,0h0Zm157.4-10.14h0s-27.43-38.82-27.43-38.82l-29.15,36.34,1.69-8.15c6.87-33.04-.29-67.45-19.77-95.01L18.13,115.78h.02C5.4,134.03-1.49,156.66.27,180.98c2.02,27.72,15.5,52.47,35.66,69.5v-77.18h.01c.09-35.71,29.18-64.73,64.93-64.73s64.94,29.11,64.94,64.9c0,4.07-.28,7.96-.9,11.75,0,.04-.01.07-.02.1-3.48,18.89-15.34,34.86-31.39,44.22-.59.34-1.18.67-1.76.99-.27.15-.54.29-.81.44-.18.1-.36.19-.55.28-4.83,2.47-10,4.36-15.44,5.57.03.05.07.1.1.14-4.91,1.1-9.61,1.47-14.17,1.4-18.9,0-35.94-8.12-47.82-21.04v44.85c12.31,6.68,26.12,10.89,40.76,11.88,10.92.74,21.5-.27,31.49-2.76,0,0,0,0,0,0,.07-.02.15-.04.22-.06,1.15-.29,2.3-.6,3.44-.93.08-.02.16-.05.25-.07,9.2-2.69,17.87-6.65,25.78-11.69l-.05-.06c4.85-3.1,9.43-6.61,13.68-10.47l.06.08c13.78-12.51,24.07-28.77,29.28-47.17.01-.04.02-.08.04-.13.33-1.19.65-2.39.94-3.59.06-.25.11-.5.17-.74.21-.89.4-1.78.59-2.67.08-.38.16-.75.23-1.13.2-1.03.38-2.06.55-3.1.07-.47.14-.94.21-1.41.1-.72.2-1.43.29-2.15.06-.46.12-.91.17-1.37.12-1.08.22-2.16.3-3.25,0-.13.03-.25.04-.38.02-.27.03-.54.04-.81.15-2.22.23-4.45.23-6.7,0-26.12-9.94-49.91-26.24-67.82Zm-74.65,115.49c26.31,0,47.71-21.39,47.71-47.68s-21.4-47.68-47.71-47.68-47.71,21.39-47.71,47.68,21.4,47.68,47.71,47.68Z"/><path class="cls-2" d="m135.76,173.43h-8.87c0-14.36-11.68-26.04-26.04-26.04v-8.87c19.25,0,34.9,15.66,34.9,34.9Z"/></g></g></svg>